<svg viewBox="0 0 42 42" fill="none" xmlns="http://www.w3.org/2000/svg">
<path d="M19.2855 0.114845C18.8918 0.328125 18.8754 0.467579 18.8672 2.79727V4.9711L18.2355 5.11875C16.3324 5.56992 14.6672 6.44766 13.3465 7.70274C11.3367 9.61406 10.4016 11.993 10.6641 14.5359C10.8691 16.5293 11.3859 17.7105 12.682 19.1543C14.093 20.7293 15.6844 21.648 20.1469 23.4691C23.5594 24.8555 24.7242 25.5199 25.3969 26.4633C25.9793 27.2754 26.1187 27.9234 25.9137 28.8914C25.725 29.7773 25.2738 30.4172 24.4453 30.9668C23.4281 31.6477 22.1895 31.9594 20.8441 31.8855C18.5145 31.7625 16.1766 30.7781 14.0602 29.0309C13.4777 28.5469 13.3055 28.4813 12.9445 28.6207C12.8297 28.6617 12.1734 29.441 11.4188 30.4336C9.9832 32.3121 9.92578 32.4352 10.2621 32.9027C10.6477 33.4523 12.4277 34.7895 13.6254 35.4293C14.8477 36.0855 16.7426 36.7582 18.0469 36.9879C18.3422 37.0453 18.6457 37.1027 18.7277 37.1273C18.859 37.1684 18.8672 37.3406 18.8672 39.252C18.8672 40.6957 18.9 41.4012 18.9656 41.5488C19.1543 41.959 19.3594 42 21.2871 42H23.0672L23.3051 41.7621L23.543 41.5242V39.3422V37.1602L23.7316 37.1273C26.2418 36.5777 27.8414 35.741 29.3344 34.1906C30.9914 32.468 31.7707 30.6715 31.8855 28.3336C31.943 27.0703 31.8363 26.2254 31.5 25.2328C31.098 24.027 30.7289 23.4199 29.9086 22.5914C28.3008 20.9836 26.7422 20.1059 22.6816 18.5391C17.8664 16.677 16.4473 15.4875 16.5867 13.4613C16.6113 13.1086 16.7098 12.7313 16.8574 12.4031C17.6203 10.7051 20.3027 9.73711 22.8949 10.2129C24.4863 10.5082 25.7086 11.0332 27.259 12.0832C27.8332 12.477 28.3746 12.7969 28.4648 12.7969C28.8832 12.7969 29.0227 12.6164 30.0645 10.7461C30.6305 9.7207 31.1227 8.80195 31.1391 8.71172C31.3277 7.99805 28.7684 6.26719 26.4059 5.5125C25.5773 5.2418 24.1172 4.92188 23.7563 4.92188H23.543V2.69883V0.475784L23.3051 0.237892L23.0672 0H21.2707C19.9418 0.0082016 19.4332 0.032814 19.2855 0.114845Z" />
</svg>
