<svg viewBox="0 0 48 48"  xmlns="http://www.w3.org/2000/svg">
<path fill-rule="evenodd" clip-rule="evenodd" d="M48 24C48 37.2548 37.2548 48 24 48C10.7452 48 0 37.2548 0 24C0 10.7452 10.7452 0 24 0C37.2548 0 48 10.7452 48 24ZM12.501 16.4604C15.7949 19.25 21.5747 24.1577 23.2735 25.688C23.5015 25.8945 23.7461 25.9995 24 25.9995C24.2534 25.9995 24.4976 25.8955 24.7251 25.6899C26.4253 24.1582 32.2051 19.25 35.4991 16.4604C35.7041 16.2871 35.7354 15.9824 35.5694 15.7705C35.1856 15.2808 34.6133 15 34 15H14C13.3868 15 12.8145 15.2808 12.4307 15.7705C12.2647 15.9824 12.2959 16.2871 12.501 16.4604ZM35.1768 18.0444C35.3242 17.9184 35.5327 17.8897 35.71 17.9722C35.8867 18.0537 36 18.231 36 18.4258V31C36 32.1031 35.103 33 34 33H14C12.897 33 12 32.1031 12 31V18.4258C12 18.231 12.1133 18.0542 12.29 17.9721C12.4658 17.8906 12.6748 17.9184 12.8232 18.0444C15.8051 20.5718 21.0405 25.0224 22.604 26.4311C23.4292 27.1753 24.5717 27.1753 25.395 26.4321C26.8618 25.1104 31.5239 21.1411 35.1768 18.0444Z"/>
</svg>
