<svg viewBox="0 0 48 48" xmlns="http://www.w3.org/2000/svg">
<path fill-rule="evenodd" clip-rule="evenodd" d="M24 48C37.2548 48 48 37.2548 48 24C48 10.7452 37.2548 0 24 0C10.7452 0 0 10.7452 0 24C0 37.2548 10.7452 48 24 48ZM12 24C12 17.373 17.374 12 24 12C30.627 12 36 17.373 36 24C36 29.3 32.566 33.797 27.801 35.386C27.192 35.504 27 35.129 27 34.81V31.517C27 30.397 26.607 29.667 26.177 29.295C28.849 28.998 31.656 27.983 31.656 23.374C31.656 22.064 31.191 20.993 30.421 20.153C30.545 19.851 30.956 18.63 30.303 16.977C30.303 16.977 29.297 16.655 27.006 18.207C26.047 17.941 25.02 17.808 24 17.803C22.98 17.808 21.954 17.941 20.997 18.207C18.704 16.655 17.696 16.977 17.696 16.977C17.044 18.629 17.455 19.85 17.579 20.153C16.812 20.993 16.343 22.063 16.343 23.374C16.343 27.971 19.145 29 21.81 29.305C21.466 29.604 21.155 30.134 21.048 30.909C20.363 31.216 18.626 31.746 17.556 29.912C17.556 29.912 16.922 28.759 15.717 28.675C15.717 28.675 14.545 28.659 15.634 29.404C15.634 29.404 16.421 29.773 16.967 31.16C16.967 31.16 17.662 33.302 21 32.576V34.81C21 35.126 20.806 35.498 20.207 35.387C15.438 33.8 12 29.302 12 24Z"/>
</svg>
