<svg viewBox="0 0 48 48" xmlns="http://www.w3.org/2000/svg">
<path d="M18.7948 33.355C19.1438 33.355 19.4266 33.0721 19.4266 32.7232V21.4494C19.4266 21.1005 19.1438 20.8176 18.7948 20.8176H16.1054C15.7565 20.8176 15.4737 21.1005 15.4737 21.4494V32.7232C15.4737 33.0721 15.7565 33.355 16.1054 33.355H18.7948Z" />
<path d="M14.8952 17.2C14.8952 18.611 16.0391 19.7549 17.4501 19.7549C18.8612 19.7549 20.0051 18.611 20.0051 17.2C20.0051 15.7889 18.8612 14.645 17.4501 14.645C16.0391 14.645 14.8952 15.7889 14.8952 17.2Z" />
<path d="M32.9004 33.355C33.2211 33.355 33.4813 33.0949 33.4813 32.7741V27.2775C33.4814 24.8972 33.4817 20.6284 28.8866 20.6284C26.7998 20.6284 25.8197 21.3924 25.1602 22.3821V21.3985C25.1602 21.0777 24.9001 20.8176 24.5793 20.8176H21.7882C21.4674 20.8176 21.2073 21.0777 21.2073 21.3985V32.7741C21.2073 33.0949 21.4674 33.355 21.7882 33.355H24.5793C24.9002 33.355 25.1602 33.0949 25.1602 32.7741V26.6749C25.2327 25.8554 25.5934 24.0292 27.372 24.0292C29.496 24.0292 29.4539 26.3186 29.4362 27.2829C29.4348 27.3596 29.4335 27.4279 29.4335 27.486V32.7741C29.4335 33.0949 29.6937 33.355 30.0145 33.355H32.9004Z" />
<path fill-rule="evenodd" clip-rule="evenodd" d="M24 48C37.2548 48 48 37.2548 48 24C48 10.7452 37.2548 0 24 0C10.7452 0 0 10.7452 0 24C0 37.2548 10.7452 48 24 48ZM12 14.171C12 12.972 12.972 12 14.171 12H33.829C35.028 12 36 12.972 36 14.171V33.8289C36 35.028 35.028 36 33.8289 36H14.171C12.972 36 12 35.028 12 33.8289V14.171Z" />
</svg>
