<svg viewBox="0 0 32 33" fill="none" xmlns="http://www.w3.org/2000/svg">
<rect y="0.5" width="32" height="32" rx="4" fill="#1B9C73"/>
<path d="M17.8874 27.2136C15.5716 27.457 13.5727 27.2293 11.8908 26.5306C10.2068 25.8118 8.86628 24.6801 7.86919 23.1358C6.89225 21.5893 6.28525 19.6883 6.04819 17.4329C5.8704 15.7414 5.94324 14.2067 6.26672 12.8289C6.60821 11.4289 7.17225 10.2091 7.95883 9.16949C8.76343 8.10764 9.78368 7.25726 11.0196 6.61836C12.2756 5.97734 13.7293 5.57006 15.3806 5.3965C16.5888 5.26951 17.7939 5.30573 18.9957 5.50517C20.1955 5.68448 21.3157 6.07574 22.3563 6.67897C22.6594 6.85071 22.865 7.06325 22.9731 7.31657C23.0812 7.56989 23.1097 7.84175 23.0588 8.13214C23.0259 8.40028 22.9194 8.64562 22.7391 8.86817C22.5791 9.08859 22.3602 9.23376 22.0825 9.30367C21.8249 9.37146 21.5245 9.32159 21.1811 9.15408C20.3386 8.69291 19.4717 8.38701 18.5804 8.23637C17.6869 8.06559 16.7166 8.03523 15.6695 8.14529C14.0987 8.31038 12.8035 8.77228 11.7838 9.53098C10.7842 10.2876 10.0772 11.3086 9.66254 12.5942C9.24582 13.8596 9.12847 15.3582 9.31049 17.09C9.59199 19.7683 10.4401 21.7356 11.8548 22.9917C13.2695 24.2479 15.2254 24.7447 17.7225 24.4823C18.6287 24.387 19.5063 24.2134 20.3553 23.9613C21.2223 23.6869 21.4318 23.6468 22.2035 23.2399L22.344 24.5768L21.6043 17.5387L17.7076 17.9483C17.3049 17.9906 16.9721 17.9238 16.7093 17.7478C16.4645 17.5496 16.322 17.2591 16.2818 16.8765C16.2415 16.4939 16.3227 16.2003 16.5251 15.9958C16.7456 15.769 17.0572 15.6345 17.46 15.5921L22.6857 15.0429C23.1086 14.9985 23.4424 15.0753 23.6872 15.2736C23.932 15.4718 24.0767 15.7824 24.1211 16.2053L24.9212 23.8173C24.9593 24.1798 24.9216 24.4993 24.8081 24.7759C24.7127 25.0303 24.5203 25.2337 24.231 25.3863C23.401 25.8197 22.4137 26.2085 21.269 26.5528C20.1222 26.8769 18.995 27.0972 17.8874 27.2136Z" fill="#D1EBE3"/>
<path d="M16.0701 29.7543C16.1112 30.1453 16.7784 30.3956 17.5604 30.3134C18.3424 30.2312 18.943 29.8476 18.9019 29.4566L18.9018 29.4554L18.6291 26.8608L15.7972 27.1584L16.0701 29.7543Z" fill="#D1EBE3"/>
<path d="M16.3599 3.00114C16.3188 2.61014 15.6516 2.3598 14.8696 2.442C14.0876 2.52419 13.487 2.90778 13.5281 3.29878L13.8009 5.89465L16.6328 5.59701L16.3599 3.00114Z" fill="#D1EBE3"/>
</svg>
