<svg viewBox="0 0 48 48" fill="none" xmlns="http://www.w3.org/2000/svg">
<g clip-path="url(#clip0_20_9042)">
<path d="M10.4531 0.131227C8.86876 0.374979 8.01563 0.628103 6.75001 1.25623C4.33126 2.44685 2.44688 4.6406 1.55626 7.31248C1.06876 8.77498 0.909382 9.89998 0.965632 11.4844C1.11563 15.3844 3.09376 18.7687 6.31876 20.6156C9.02813 22.1625 13.0594 22.5281 16.2656 21.5062C19.3781 20.5031 21.7969 18.2062 22.95 15.15C23.475 13.7625 23.6625 12.7219 23.6625 11.1094C23.6719 9.07498 23.3719 7.74373 22.4906 5.9531C21.0094 2.93435 18.1875 0.843729 14.7656 0.234354C13.6031 0.0281029 11.5031 -0.0281467 10.4531 0.131227ZM13.7625 5.30623C14.8875 5.53123 15.7594 5.99998 16.5375 6.78748C17.7094 7.95935 18.2156 9.2531 18.225 11.0625C18.2344 11.9344 18.1875 12.2719 18.0094 12.8437C17.7 13.8562 17.2875 14.5781 16.6406 15.225C15.975 15.9094 15.4688 16.2187 14.475 16.5656C13.7906 16.8 13.6219 16.8187 12.3281 16.8187C11.0531 16.8187 10.8469 16.7906 10.1625 16.5656C8.30626 15.9469 6.91876 14.4469 6.42188 12.5156C6.22501 11.775 6.22501 10.1625 6.42188 9.42185C6.89063 7.6031 8.11876 6.20623 9.79688 5.56873C10.9406 5.14685 12.4688 5.04373 13.7625 5.30623Z"/>
<path d="M39.1969 4.32187C38.6063 4.43437 38.025 4.74375 37.5563 5.18437C37.2563 5.475 7.84688 38.1469 4.0125 42.4594C3.49688 43.0312 3.44063 43.35 3.77813 43.6687C3.99375 43.8656 4.05938 43.875 6.59063 43.875C8.98125 43.875 9.21563 43.8562 9.70313 43.6781C9.98438 43.575 10.35 43.3781 10.5 43.2562C10.7906 43.0031 44.3344 5.5125 44.4656 5.2875C44.625 5.00625 44.5688 4.56562 44.3438 4.3875C44.1563 4.2375 43.9406 4.21875 41.8688 4.22812C40.6313 4.2375 39.4219 4.275 39.1969 4.32187Z"/>
<path d="M33.5625 26.5312C32.5406 26.7187 31.2187 27.1312 30.4219 27.5344C27.45 29.0437 25.3219 32.0719 24.8531 35.475C24.1781 40.3031 26.5406 44.9062 30.6844 46.875C33.225 48.0844 36.6281 48.3187 39.5156 47.4844C43.4344 46.35 46.2469 43.1156 46.9219 38.9719C47.2875 36.6937 46.9031 34.1719 45.8812 32.1375C44.5406 29.475 42.1125 27.5062 39.2344 26.7562C37.5375 26.3156 35.3156 26.2219 33.5625 26.5312ZM37.9875 31.5656C39.8812 32.2219 41.1469 33.6375 41.625 35.6344C42.4875 39.2437 40.4437 42.4406 36.9469 42.9469C33.6469 43.425 30.9281 41.6812 30.1875 38.6156C29.4094 35.3625 31.125 32.2125 34.0781 31.4625C34.9406 31.2469 35.1281 31.2281 36.2062 31.2656C37.0031 31.2937 37.3594 31.35 37.9875 31.5656Z"/>
</g>
</svg>
