<svg viewBox="0 0 160 160"  xmlns="http://www.w3.org/2000/svg">
<path d="M85.418 96.457H69.5391C69.5391 92.9805 69.793 89.9531 70.3008 87.375C70.8477 84.7578 71.7461 82.4141 72.9961 80.3438C74.2461 78.2344 75.9258 76.2227 78.0352 74.3086C79.8711 72.707 81.4727 71.2031 82.8398 69.7969C84.207 68.3516 85.2617 66.8672 86.0039 65.3438C86.7461 63.8203 87.1172 62.1602 87.1172 60.3633C87.1172 58.2148 86.7852 56.457 86.1211 55.0898C85.4961 53.6836 84.5586 52.6289 83.3086 51.9258C82.0977 51.1836 80.5742 50.8125 78.7383 50.8125C77.2148 50.8125 75.7891 51.1641 74.4609 51.8672C73.1328 52.5312 72.0586 53.5859 71.2383 55.0312C70.418 56.4766 69.9688 58.3711 69.8906 60.7148H51.4922C51.6094 55.1289 52.8789 50.5586 55.3008 47.0039C57.7227 43.4102 60.9648 40.7734 65.0273 39.0938C69.1289 37.375 73.6992 36.5156 78.7383 36.5156C84.3242 36.5156 89.1094 37.3945 93.0938 39.1523C97.1172 40.9102 100.184 43.5078 102.293 46.9453C104.441 50.3828 105.516 54.582 105.516 59.543C105.516 62.9414 104.871 65.9297 103.582 68.5078C102.293 71.0469 100.574 73.4297 98.4258 75.6562C96.2773 77.8438 93.8945 80.1289 91.2773 82.5117C89.0508 84.5039 87.5273 86.5742 86.707 88.7227C85.8867 90.832 85.457 93.4102 85.418 96.457ZM67.4297 114.387C67.4297 111.77 68.3672 109.562 70.2422 107.766C72.1562 105.969 74.6367 105.07 77.6836 105.07C80.7305 105.07 83.1914 105.969 85.0664 107.766C86.9414 109.562 87.8789 111.77 87.8789 114.387C87.8789 117.043 86.9414 119.27 85.0664 121.066C83.1914 122.824 80.7305 123.703 77.6836 123.703C74.6367 123.703 72.1562 122.824 70.2422 121.066C68.3672 119.27 67.4297 117.043 67.4297 114.387Z" />
<path fill-rule="evenodd" clip-rule="evenodd" d="M160 80C160 124.183 124.183 160 80 160C35.8172 160 0 124.183 0 80C0 35.8172 35.8172 0 80 0C124.183 0 160 35.8172 160 80ZM145 80C145 115.899 115.899 145 80 145C44.1015 145 15 115.899 15 80C15 44.1015 44.1015 15 80 15C115.899 15 145 44.1015 145 80Z" />
</svg>
