<svg viewBox="0 0 165 165" xmlns="http://www.w3.org/2000/svg">
<path d="M87.4951 96.0986H73.7988C73.8346 92.876 74.0853 90.1009 74.5508 87.7734C75.0521 85.4102 75.8936 83.2796 77.0752 81.3818C78.2926 79.484 79.904 77.6042 81.9092 75.7422C83.5921 74.2383 85.0602 72.806 86.3135 71.4453C87.5667 70.0846 88.5514 68.6882 89.2676 67.2559C89.9837 65.7878 90.3418 64.1585 90.3418 62.3682C90.3418 60.2913 90.0195 58.5726 89.375 57.2119C88.7663 55.8154 87.8353 54.7591 86.582 54.043C85.3646 53.3268 83.8249 52.9688 81.9629 52.9688C80.4232 52.9688 78.9909 53.3089 77.666 53.9893C76.3411 54.6338 75.249 55.6364 74.3896 56.9971C73.5661 58.3577 73.1364 60.1481 73.1006 62.3682H57.5244C57.6318 57.4626 58.7598 53.4163 60.9082 50.2295C63.0924 47.0068 66.0107 44.6257 69.6631 43.0859C73.3154 41.5104 77.4154 40.7227 81.9629 40.7227C86.9759 40.7227 91.2728 41.5462 94.8535 43.1934C98.4342 44.8047 101.174 47.1859 103.071 50.3369C104.969 53.4521 105.918 57.2477 105.918 61.7236C105.918 64.8389 105.309 67.6139 104.092 70.0488C102.874 72.4479 101.281 74.6859 99.3115 76.7627C97.3421 78.8395 95.1758 80.988 92.8125 83.208C90.7715 85.0342 89.375 86.9499 88.623 88.9551C87.9069 90.9603 87.5309 93.3415 87.4951 96.0986ZM72.1875 112.695C72.1875 110.404 72.9753 108.506 74.5508 107.002C76.1263 105.462 78.2389 104.692 80.8887 104.692C83.5026 104.692 85.5973 105.462 87.1729 107.002C88.7842 108.506 89.5898 110.404 89.5898 112.695C89.5898 114.915 88.7842 116.795 87.1729 118.335C85.5973 119.875 83.5026 120.645 80.8887 120.645C78.2389 120.645 76.1263 119.875 74.5508 118.335C72.9753 116.795 72.1875 114.915 72.1875 112.695Z" />
<path fill-rule="evenodd" clip-rule="evenodd" d="M162 82C162 126.183 126.183 162 82 162C37.8172 162 2 126.183 2 82C2 37.8172 37.8172 2 82 2C126.183 2 162 37.8172 162 82ZM152 82C152 120.66 120.66 152 82 152C43.3401 152 12 120.66 12 82C12 43.3401 43.3401 12 82 12C120.66 12 152 43.3401 152 82Z"/>
</svg>
