<?xml version="1.0" standalone="no"?>
<!DOCTYPE svg PUBLIC "-//W3C//DTD SVG 20010904//EN"
 "http://www.w3.org/TR/2001/REC-SVG-20010904/DTD/svg10.dtd">
<svg version="1.0" xmlns="http://www.w3.org/2000/svg"
 width="512.000000pt" height="512.000000pt" viewBox="0 0 512.000000 512.000000"
 preserveAspectRatio="xMidYMid meet">

<g transform="translate(0.000000,512.000000) scale(0.100000,-0.100000)"
stroke="none">
<path d="M2438 5110 c-288 -52 -519 -261 -610 -550 -33 -107 -33 -292 1 -400
64 -210 205 -376 395 -469 104 -51 178 -70 296 -78 214 -13 416 65 569 220 98
100 162 209 198 341 24 86 23 289 0 376 -71 257 -268 461 -522 540 -79 24
-249 35 -327 20z m227 -305 c175 -46 307 -191 337 -372 31 -187 -63 -379 -230
-466 -158 -82 -320 -74 -465 23 -244 163 -275 484 -68 691 117 117 275 163
426 124z"/>
<path d="M785 3624 c-94 -20 -136 -43 -162 -90 -40 -70 -27 -127 49 -213 49
-56 88 -125 126 -221 53 -134 53 -130 -24 -202 -120 -112 -231 -262 -308 -415
l-36 -73 -156 0 c-182 0 -219 -12 -254 -80 -20 -39 -20 -54 -18 -534 3 -484 3
-495 24 -523 11 -15 36 -38 54 -51 31 -20 44 -22 191 -22 l159 0 36 -72 c144
-287 404 -541 691 -675 43 -20 80 -38 81 -39 2 -1 -6 -62 -18 -134 -24 -140
-22 -175 10 -220 41 -58 56 -60 419 -60 313 0 334 1 371 20 51 26 70 64 90
180 l16 95 279 0 279 0 16 -95 c20 -116 39 -154 90 -180 37 -19 58 -20 372
-20 382 0 383 0 428 83 l24 45 -23 143 c-15 92 -19 145 -13 147 47 15 195 96
277 150 131 86 318 272 404 401 317 478 346 1069 75 1555 -24 43 -44 82 -44
88 0 5 37 47 83 92 111 111 189 151 297 151 118 0 172 -44 136 -112 -8 -16
-31 -42 -50 -57 -45 -34 -66 -74 -66 -126 0 -103 91 -171 190 -141 21 6 61 32
89 57 200 180 200 442 -1 589 -226 167 -557 106 -814 -150 l-62 -63 -34 35
c-57 61 -206 171 -306 227 -174 97 -369 160 -572 186 -54 7 -355 10 -823 9
l-738 -1 -31 44 c-98 135 -259 236 -436 273 -86 19 -277 18 -367 -1z m346
-304 c120 -37 197 -103 268 -230 29 -53 45 -69 83 -88 l47 -23 103 16 c90 14
197 16 828 12 695 -3 729 -4 810 -24 466 -115 803 -447 918 -903 23 -92 26
-126 26 -270 0 -146 -3 -177 -26 -270 -104 -413 -379 -717 -783 -866 -146 -54
-169 -95 -141 -257 9 -52 16 -100 16 -106 0 -8 -41 -11 -147 -9 l-147 3 -16
95 c-20 116 -39 154 -90 180 -37 19 -58 20 -475 20 -417 0 -438 -1 -475 -20
-51 -26 -70 -64 -90 -180 l-16 -95 -147 -3 c-106 -2 -147 1 -147 9 0 6 7 54
16 106 28 163 7 201 -144 258 -327 126 -575 366 -708 686 -28 68 -46 97 -72
117 -34 26 -41 27 -179 30 l-143 3 0 299 0 299 143 3 c138 3 145 4 179 30 26
20 44 49 72 117 78 187 199 353 346 473 93 77 120 114 120 168 0 66 -71 302
-122 403 l-18 37 24 0 c13 0 52 -9 87 -20z"/>
<path d="M1878 2689 c-43 -22 -78 -81 -78 -129 0 -50 35 -107 80 -130 38 -19
58 -20 675 -20 617 0 637 1 675 20 45 23 80 80 80 130 0 50 -35 107 -80 130
-38 19 -57 20 -677 20 -615 -1 -639 -2 -675 -21z"/>
<path d="M1278 2389 c-43 -22 -78 -81 -78 -129 0 -76 74 -150 150 -150 76 0
150 74 150 150 0 50 -35 107 -80 130 -49 25 -94 25 -142 -1z"/>
</g>
</svg>
